EMG
version=1
nRows=17
nColumns=17
inDegrees=no
endheader
time	_right_gast_med	_right_glut_max	_left_gast_med	_left_glut_max	_right_glut_med	_right_bic_fem	_right_rect_fem	_right_vast_lat	_right_vast_med	_right_tens_fasc_lat	_left_glut_med	_left_bic_fem	_left_rect_fem	_left_vast_lat	_left_vast_med	_left_tens_fasc_lat
      0.45000000	     -1.52842903	     -0.01184399	      0.01659450	      0.02626782	     -0.02296856	     -0.01604972	      0.03654320	     -0.04497520	     -1.03723061	      0.02205517	      0.03936789	      0.02917545	     -0.00879322	     -0.06882945	      0.08500424	      0.07562979
      0.46000000	      1.14191902	      0.01702745	      0.01906063	     -0.05505899	     -0.01092151	     -0.05792867	      0.11017467	      0.01101260	     -0.40130839	     -0.04209717	      0.03289610	      0.07372493	     -0.02395905	     -0.01981327	      0.05583207	      0.06644831
      0.47000000	      0.50005001	      0.02228051	      0.02344607	     -0.12625548	     -0.00904792	     -0.01390995	      0.03143632	      0.12302666	      0.56863177	     -0.02668789	      0.00685069	      0.06241437	     -0.03207383	      0.02461443	      0.22054911	     -0.01629936
      0.48000000	     -2.20519471	     -0.04204279	      0.02631695	     -0.11669244	      0.01516138	      0.08748394	     -0.07157719	      0.09649166	      0.87179881	      0.06027775	     -0.01117420	      0.03710964	     -0.00978610	      0.03007933	      0.19744298	     -0.07040057
      0.49000000	     -2.43384409	     -0.04825272	      0.01542029	     -0.07312540	      0.03070708	      0.08881878	     -0.07993034	     -0.00272379	      0.60756731	      0.13084568	      0.00653287	      0.01469233	      0.01704496	      0.02992313	     -0.02810434	     -0.02766885
      0.50000000	     -0.96205735	     -0.00049096	      0.01191857	     -0.05570356	      0.02966479	     -0.00772021	     -0.04274606	     -0.10095204	      0.32822517	      0.12648459	      0.08192308	     -0.01152925	      0.02232790	      0.03625220	     -0.20672998	      0.00488108
      0.51000000	      0.37624002	      0.00341998	      0.01913755	     -0.05089703	      0.02716420	     -0.01966670	     -0.02537058	     -0.12002038	      0.11866295	      0.02822108	      0.14018953	     -0.01215547	      0.03098340	      0.02155769	     -0.18918027	     -0.00986753
      0.52000000	      0.81918925	      0.01488676	      0.02278777	     -0.03289822	     -0.04253008	     -0.02767013	     -0.03260686	      0.09560744	      0.02303562	     -0.02607073	      0.09260622	      0.01245387	      0.03980178	      0.00969551	      0.00942315	     -0.04283538
      0.53000000	      0.75405580	      0.02558795	      0.01691224	     -0.00446110	     -0.16589338	     -0.03288046	     -0.03215696	      0.13298109	      0.02248025	     -0.04429106	     -0.01558268	      0.01602867	      0.03510948	      0.01716288	      0.16771741	     -0.00885510
      0.54000000	      0.61844915	     -0.06684333	      0.00852098	      0.01811816	     -0.16750717	     -0.02673280	     -0.03622015	      0.11502010	      0.02988280	     -0.04649094	     -0.10626795	     -0.00075000	      0.01822429	      0.01139060	      0.10804790	      0.10054167
      0.55000000	      0.99048293	     -0.04570581	     -0.01258262	      0.07180031	     -0.02528243	      0.02209768	      0.19003981	      0.15387581	      0.04613394	     -0.00690145	     -0.12064408	     -0.03215020	      0.01300513	     -0.01155958	     -0.03933150	      0.14852308
      0.56000000	      1.30147731	      0.07784479	     -0.03051178	      0.19820602	      0.11886366	      0.06371862	      0.48356354	     -0.15945789	      0.04036624	     -0.05217631	     -0.07590060	     -0.04381292	      0.00498715	     -0.02297068	     -0.07336196	      0.09247611
      0.57000000	     -0.71318781	      0.29272860	     -0.02634348	      0.05432882	      0.18832272	      0.09600853	      0.29510131	     -0.09161461	     -0.05874102	     -0.07145859	     -0.05995276	     -0.02975116	     -0.00340645	     -0.01178117	     -0.00138268	      0.01689742
      0.58000000	     -1.28265893	      0.34939283	     -0.00118859	     -0.17906269	      0.20939949	      0.02541870	     -0.10504081	      0.07357844	     -0.10574260	      0.01521199	     -0.07166713	     -0.00596409	     -0.00029953	      0.00749489	      0.04155568	     -0.01918450
      0.59000000	     -0.65203542	     -0.05776265	      0.03946325	     -0.04400067	      0.09593356	     -0.04581865	     -0.39008287	     -0.21784350	      0.03517005	      0.03159690	     -0.05009710	      0.04746339	      0.00284140	      0.03538667	     -0.00830164	     -0.03915062
      0.60000000	     -0.02948786	     -0.43495744	      0.04994943	      0.15861481	      0.00182929	      0.04498571	     -0.38906273	     -0.03453115	     -0.22666574	      0.03391114	     -0.00285861	      0.08625721	     -0.00001488	      0.06294677	     -0.07198916	     -0.05622611
      0.61000000	      1.96513963	     -0.39284298	      0.02906441	      0.17689785	     -0.00344643	      0.17705151	     -0.15804434	      0.03569210	     -0.38583308	     -0.01101432	      0.01427235	      0.05519456	      0.00658525	      0.07153928	     -0.07651733	     -0.04065963
